<?xml version="1.0" standalone="no"?>
<!DOCTYPE svg PUBLIC "-//W3C//DTD SVG 20010904//EN"
 "http://www.w3.org/TR/2001/REC-SVG-20010904/DTD/svg10.dtd">
<svg version="1.0" xmlns="http://www.w3.org/2000/svg"
 width="700.000000pt" height="700.000000pt" viewBox="0 0 700.000000 700.000000"
 preserveAspectRatio="xMidYMid meet">
<metadata>
Created by potrace 1.14, written by Peter Selinger 2001-2017
</metadata>
<g transform="translate(0.000000,700.000000) scale(0.100000,-0.100000)"
fill="#000000" stroke="none">
<path d="M1105 6410 c-86 -18 -163 -82 -204 -169 l-25 -56 -1 -2675 c0 -2555
1 -2677 18 -2729 32 -94 103 -161 196 -186 35 -9 622 -11 2431 -10 l2385 1 47
22 c62 30 116 85 147 152 l25 55 0 2690 0 2690 -33 63 c-36 66 -80 108 -146
138 -38 17 -148 18 -2425 19 -1312 1 -2398 -2 -2415 -5z m3014 -3236 l-825
-825 -567 567 -567 567 205 206 205 206 358 -358 c196 -196 361 -357 365 -357
5 0 286 277 624 615 l615 615 206 -206 206 -205 -825 -825z"/>
</g>
</svg>
